<?xml version="1.0" encoding="utf-8"?>
<!-- Generator: Adobe Illustrator 27.5.0, SVG Export Plug-In . SVG Version: 6.00 Build 0)  -->
<svg version="1.1" id="Layer_1" xmlns="http://www.w3.org/2000/svg" xmlns:xlink="http://www.w3.org/1999/xlink" x="0px" y="0px"
	 viewBox="0 0 100 100" style="enable-background:new 0 0 100 100;" xml:space="preserve">
<style type="text/css">
	.st0{fill:#FFFFFF;}
</style>
<path class="st0" d="M92.3,38.1H78.9v-7.9c0-0.8-0.5-1.6-1.3-1.9L52,17.7c-0.5-0.2-1.1-0.2-1.6,0L24.7,28.3
	c-0.8,0.3-1.3,1.1-1.3,1.9v7.9H10c-1.1,0-2.1,0.9-2.1,2.1c0,1.1,0.9,2.1,2.1,2.1h13.4v2.4c0,0.5,0,0.9,0.1,1.4H13.3
	c-1.1,0-2.1,0.9-2.1,2.1c0,1.1,0.9,2.1,2.1,2.1h10.6c0.2,1.3,0.4,2.5,0.7,3.8h-8.1c-1.1,0-2.1,0.9-2.1,2.1c0,1.1,0.9,2.1,2.1,2.1
	h9.3c4.1,11.5,13.3,20.4,24.9,23.1c0.2,0,0.3,0.1,0.5,0.1s0.3,0,0.5-0.1C63.2,78.5,72.4,69.5,76.5,58h9.3c1.1,0,2.1-0.9,2.1-2.1
	c0-1.1-0.9-2.1-2.1-2.1h-8.1c0.3-1.2,0.5-2.5,0.7-3.8H89c1.1,0,2.1-0.9,2.1-2.1c0-1.1-0.9-2.1-2.1-2.1H78.8c0-0.5,0.1-0.9,0.1-1.4
	V42h13.4c1.1,0,2.1-0.9,2.1-2.1C94.3,39.1,93.4,38.1,92.3,38.1z M51.2,77c-13.7-3.4-23.6-16.9-23.6-32.4v-13l23.6-9.8l23.6,9.8v13
	C74.8,60.1,64.9,73.6,51.2,77z"/>
<path class="st0" d="M63.5,41.8h-8L53,34.2c-0.3-0.8-1.1-1.4-2-1.4s-1.7,0.6-2,1.4l-2.5,7.6h-8c-0.9,0-1.7,0.6-2,1.4
	c-0.3,0.8,0,1.8,0.7,2.3l6.4,4.7l-2.5,7.6c-0.3,0.8,0,1.8,0.7,2.3s1.7,0.5,2.4,0l6.4-4.7l6.4,4.7c0.4,0.3,0.8,0.4,1.2,0.4
	s0.8-0.1,1.2-0.4c0.7-0.5,1-1.5,0.7-2.3l-2.5-7.6l6.4-4.7c0.7-0.5,1-1.5,0.7-2.3C65.2,42.4,64.4,41.8,63.5,41.8z M53.9,50.1l1,3
	l-2.5-1.8c-0.4-0.3-0.8-0.4-1.2-0.4S50.4,51,50,51.3L47.4,53l1-3c0.3-0.8,0-1.8-0.7-2.3l-2.5-1.8h3.1c0.9,0,1.7-0.6,2-1.4l1-3l1,3
	c0.3,0.8,1.1,1.4,2,1.4h3.1l-2.5,1.8C54,48.3,53.7,49.2,53.9,50.1z"/>
</svg>
