<?xml version="1.0" encoding="utf-8"?>
<!-- Generator: Adobe Illustrator 27.5.0, SVG Export Plug-In . SVG Version: 6.00 Build 0)  -->
<svg version="1.1" id="Layer_1" xmlns="http://www.w3.org/2000/svg" xmlns:xlink="http://www.w3.org/1999/xlink" x="0px" y="0px"
	 viewBox="0 0 167.8 155.8" style="enable-background:new 0 0 167.8 155.8;" xml:space="preserve">
<style type="text/css">
	.st0{fill:none;}
	.st1{fill:#FFFFFF;}
	.st2{font-family:'CenturyGothicPro';}
	.st3{font-size:30.6173px;}
	.st4{fill:none;stroke:#FFFFFF;stroke-width:3;stroke-miterlimit:10;}
	.st5{font-size:10.716px;}
</style>
<g>
	<rect x="63.5" y="102" class="st0" width="116.8" height="23.2"/>
	<text transform="matrix(1.1758 0 0 1 63.5244 124.5524)" class="st1 st2 st3">Helios</text>
	<polyline class="st4" points="60.5,62.1 80.3,72.3 15.8,72.3 37.7,81.1 	"/>
	<polyline class="st4" points="15.8,72.3 37.1,62.9 59.9,81.9 80.3,72.3 	"/>
	<polygon class="st4" points="59.9,81.9 48.3,126.3 48.3,18.8 60.5,62.1 37.7,81.1 48.3,126.3 	"/>
	<line class="st4" x1="37.1" y1="62.9" x2="48.3" y2="18.8"/>
	<path class="st4" d="M25.3,78.3c0,0-49.8,96.2,12.4,36.5"/>
	<path class="st4" d="M73,66.4c0,0,49.8-96.2-12.4-36.5"/>
	<ellipse class="st1" cx="91.2" cy="21.6" rx="5.2" ry="4.3"/>
	<ellipse class="st1" cx="11.9" cy="106.5" rx="5.5" ry="4.6"/>
	<text transform="matrix(1.1758 0 0 1 65.6123 97.4265)" class="st1 st2 st5">Project</text>
</g>
</svg>
