<?xml version="1.0" encoding="utf-8"?>
<!-- Generator: Adobe Illustrator 27.5.0, SVG Export Plug-In . SVG Version: 6.00 Build 0)  -->
<svg version="1.1" id="Layer_1" xmlns="http://www.w3.org/2000/svg" xmlns:xlink="http://www.w3.org/1999/xlink" x="0px" y="0px"
	 viewBox="0 0 24 24" style="enable-background:new 0 0 24 24;" xml:space="preserve">
<style type="text/css">
	.st0{fill-rule:evenodd;clip-rule:evenodd;fill:#FFFFFF;}
</style>
<path class="st0" d="M16.4,5.3c3.1-0.5,5.5,0,6.3,1.6c0.8,1.7-0.4,3.8-2.8,5.9c-0.4,4-3.8,7.1-8,7.1c-1.6,0-3.2-0.5-4.4-1.3
	c-3.1,0.5-5.5,0-6.3-1.6c-0.8-1.7,0.4-3.8,2.8-5.9C4.5,7.1,7.9,4,12,4C13.6,4,15.2,4.5,16.4,5.3z M18.4,7.1c0.7,0.9,1.2,2,1.5,3.1
	c0.9-1,1.4-1.9,1.1-2.4C20.7,7.3,19.7,7.1,18.4,7.1z M5.6,16.9c-0.7-0.9-1.2-2-1.5-3.1c-1,1-1.4,1.9-1.1,2.4
	C3.3,16.7,4.3,16.9,5.6,16.9z M18,11.9C17.9,8.6,15.3,6,12,6c-3.3,0-6,2.7-6,6c0,1.8,0.8,3.4,2.1,4.5c1.6-0.3,3.4-0.9,5.2-1.8
	C15.1,13.9,16.7,12.9,18,11.9z M17.3,14.8c-1,0.6-2,1.2-3.2,1.7c-1.1,0.5-2.3,1-3.4,1.3C11.1,18,11.6,18,12,18
	C14.3,18,16.3,16.7,17.3,14.8z"/>
</svg>
